<?xml version="1.0" encoding="utf-8"?>
<!-- Generator: Adobe Illustrator 28.1.0, SVG Export Plug-In . SVG Version: 6.00 Build 0)  -->
<svg version="1.1" id="Capa_1" xmlns="http://www.w3.org/2000/svg" xmlns:xlink="http://www.w3.org/1999/xlink" x="0px" y="0px"
	 viewBox="0 0 300 80" style="enable-background:new 0 0 300 80;" xml:space="preserve">
<style type="text/css">
	.st0{fill:#FFFFFF;}
</style>
<g>
	<g>
		<path class="st0" d="M37.79,60.14c-0.88,0-1.8,0.04-2.78,0.12c-0.98,0.08-1.62,0.14-1.94,0.18c-1.51,0.2-2.93,0.3-4.24,0.3
			c-3.9,0-7.46-0.88-10.67-2.63c-3.21-1.75-5.75-4.25-7.62-7.5c-1.87-3.25-2.81-7.04-2.81-11.38c0-4.3,0.93-8.04,2.78-11.2
			c1.85-3.17,4.38-5.58,7.59-7.23c3.21-1.65,6.78-2.48,10.73-2.48h10.16l1.97,5.44l-0.24,0.12c-2.59-1.91-4.78-3.22-6.57-3.91
			c-1.79-0.7-3.57-1.05-5.32-1.05c-2.83,0-5.4,0.67-7.71,2c-2.31,1.34-4.17,3.52-5.59,6.54c-1.41,3.03-2.12,6.95-2.12,11.77
			c0,4.46,0.82,8.27,2.45,11.41c1.63,3.15,3.76,5.5,6.39,7.05c2.63,1.55,5.46,2.33,8.49,2.33c2.23,0,3.95-0.52,5.17-1.55
			c1.21-1.03,1.82-2.77,1.82-5.2V40.74c0-5.58-2.49-8.37-7.47-8.37h-3.88v-0.6h16.73v28.9C41.43,60.32,39.66,60.14,37.79,60.14z"/>
	</g>
	<g>
		<path class="st0" d="M60.12,58.1c-3.21-1.75-5.75-4.25-7.62-7.5c-1.87-3.25-2.81-7.04-2.81-11.38c0-4.34,0.94-8.14,2.81-11.38
			c1.87-3.25,4.41-5.75,7.62-7.5c3.21-1.75,6.76-2.63,10.67-2.63c3.9,0,7.46,0.88,10.67,2.63c3.21,1.75,5.75,4.25,7.62,7.5
			c1.87,3.25,2.81,7.04,2.81,11.38c0,4.34-0.94,8.14-2.81,11.38c-1.87,3.25-4.41,5.75-7.62,7.5c-3.21,1.75-6.76,2.63-10.67,2.63
			C66.88,60.73,63.32,59.86,60.12,58.1z M57.49,51.14c1.41,3.13,3.28,5.41,5.59,6.84c2.31,1.43,4.88,2.15,7.71,2.15
			c2.83,0,5.4-0.72,7.71-2.15c2.31-1.43,4.17-3.71,5.59-6.84c1.41-3.13,2.12-7.1,2.12-11.92c0-4.82-0.71-8.79-2.12-11.92
			c-1.41-3.13-3.28-5.41-5.59-6.84c-2.31-1.43-4.88-2.15-7.71-2.15c-2.83,0-5.4,0.72-7.71,2.15c-2.31,1.43-4.17,3.71-5.59,6.84
			c-1.41,3.13-2.12,7.1-2.12,11.92C55.37,44.04,56.07,48.02,57.49,51.14z"/>
	</g>
	<g>
		<path class="st0" d="M121.28,61.96c-2.87-1.97-4.96-4.34-6.27-7.11c-1.31-2.77-2.61-6.34-3.88-10.73
			c-0.84-2.91-1.57-5.2-2.21-6.87c-0.64-1.67-1.51-3.11-2.63-4.3c-1.12-1.2-2.53-1.93-4.24-2.21v20.44c0,2.15,0.07,3.77,0.21,4.87
			c0.14,1.1,0.51,1.98,1.11,2.66c0.6,0.68,1.55,1.06,2.87,1.14v0.3H92.48v-0.3c1.31-0.08,2.27-0.46,2.87-1.14
			c0.6-0.68,0.97-1.56,1.11-2.66c0.14-1.1,0.21-2.72,0.21-4.87v-23.9c0-2.15-0.07-3.77-0.21-4.87c-0.14-1.1-0.51-1.98-1.11-2.66
			c-0.6-0.68-1.55-1.06-2.87-1.14v-0.3h16.91c4.22,0,7.7,0.44,10.43,1.31c2.73,0.88,4.09,2.29,4.09,4.24c0,1.75-1.29,3.42-3.88,4.99
			c-2.59,1.57-6.25,3.34-11,5.29c1.95,1.67,3.59,3.49,4.93,5.44c1.33,1.95,2.4,3.83,3.2,5.65c0.8,1.81,1.63,4.01,2.51,6.6
			c1.08,3.07,2.05,5.43,2.93,7.08c0.88,1.65,2.13,3.02,3.76,4.09c1.63,1.08,3.84,1.61,6.63,1.61v0.3
			C128.05,64.92,124.15,63.93,121.28,61.96z M108.55,33.72c3.27-1.71,5.7-3.35,7.29-4.9c1.59-1.55,2.39-3.17,2.39-4.84
			c0-1.91-0.87-3.24-2.6-3.97c-1.73-0.74-3.81-1.11-6.24-1.11h-3.17c-1.31,0-2.27,0.32-2.87,0.96c-0.6,0.64-0.97,1.49-1.11,2.57
			c-0.14,1.08-0.21,2.69-0.21,4.84v2.33C104.51,30.84,106.68,32.21,108.55,33.72z"/>
	</g>
	<g>
		<path class="st0" d="M155.16,60.14c-0.88,0-1.8,0.04-2.78,0.12c-0.98,0.08-1.62,0.14-1.94,0.18c-1.51,0.2-2.93,0.3-4.24,0.3
			c-3.9,0-7.46-0.88-10.67-2.63c-3.21-1.75-5.75-4.25-7.62-7.5c-1.87-3.25-2.81-7.04-2.81-11.38c0-4.3,0.93-8.04,2.78-11.2
			c1.85-3.17,4.38-5.58,7.59-7.23c3.21-1.65,6.78-2.48,10.73-2.48h10.16l1.97,5.44l-0.24,0.12c-2.59-1.91-4.78-3.22-6.57-3.91
			c-1.79-0.7-3.57-1.05-5.32-1.05c-2.83,0-5.4,0.67-7.71,2c-2.31,1.34-4.17,3.52-5.59,6.54c-1.41,3.03-2.12,6.95-2.12,11.77
			c0,4.46,0.82,8.27,2.45,11.41c1.63,3.15,3.76,5.5,6.39,7.05c2.63,1.55,5.46,2.33,8.49,2.33c2.23,0,3.95-0.52,5.17-1.55
			c1.21-1.03,1.82-2.77,1.82-5.2V39.22c0-5.58-2.49-8.37-7.47-8.37h-3.88v-0.6h16.73v30.42C158.81,60.32,157.03,60.14,155.16,60.14z
			"/>
	</g>
	<g>
		<path class="st0" d="M216.74,22.01v26.17c0,2.39,0.07,4.34,0.21,5.86c0.14,1.51,0.52,2.84,1.14,3.97
			c0.62,1.13,1.56,1.74,2.84,1.82v0.3h-8.96v-0.3c1.27-0.08,2.22-0.69,2.84-1.82c0.62-1.14,1-2.46,1.14-3.97
			c0.14-1.51,0.21-3.47,0.21-5.86V21.3c-1.4-1.63-2.79-2.53-4.18-2.69v-0.3h9.14l20.56,32.27V30.26c0-2.39-0.07-4.34-0.21-5.86
			c-0.14-1.51-0.52-2.84-1.13-3.97c-0.62-1.13-1.56-1.74-2.84-1.82v-0.3h8.96v0.3c-1.28,0.08-2.22,0.69-2.84,1.82
			c-0.62,1.14-1,2.46-1.13,3.97c-0.14,1.51-0.21,3.47-0.21,5.86v31.31l-0.18,0.06l-21.81-34.36
			C218.83,24.96,217.66,23.21,216.74,22.01z"/>
	</g>
	<g>
		<path class="st0" d="M252.03,57.36c-2.73-1.85-4.09-4.43-4.09-7.74c0-2.99,1.17-6.3,3.5-9.95c2.33-3.65,5.09-6.88,8.28-9.71
			c3.19-2.83,5.88-4.5,8.07-5.02c-2.35-4.1-4.18-6.21-5.5-6.33v-0.3h8.55l15.06,32.87c1.39,3.03,2.55,5.2,3.47,6.51
			c0.92,1.31,2.01,2.03,3.29,2.15v0.3h-14.34v-0.3c1.27-0.16,2.18-0.48,2.72-0.96c0.54-0.48,0.81-1.11,0.81-1.91
			c0-0.68-0.16-1.47-0.48-2.39c-0.32-0.92-0.78-2.05-1.37-3.41l-7.65-16.73h-13.56c-1.51,2.47-2.75,5.05-3.71,7.74
			c-0.96,2.69-1.43,5.17-1.43,7.44c0,2.95,0.92,5.26,2.75,6.93c1.83,1.67,4.86,2.67,9.08,2.99l3.82,0.3v0.3h-3.76
			C259.25,60.14,254.75,59.21,252.03,57.36z M272.01,33.84l-2.99-6.57l-1.02-1.91c-1.19,0.24-2.61,1.14-4.24,2.69
			c-1.63,1.55-3.19,3.49-4.66,5.8H272.01z"/>
	</g>
	<g>
		<g>
			<path class="st0" d="M45.5,31.8c1-1.08,1.5-2.24,1.23-3.65c-0.69,2.28-3.22,3.64-5.62,3.68c-0.02,0.42,0.96,0.66,0.97,1.04
				c0,0.09,0.11,0.22,0.2,0.25c1.84,0.62,4.35-0.06,5.6-1.53c0.29-0.34,0.52-0.74,0.71-1.17c-0.46,0.31-0.91,0.65-1.39,0.93
				C46.73,31.63,46.19,31.77,45.5,31.8z"/>
		</g>
		<g>
			<path class="st0" d="M37.39,26.55c-0.51-0.63-0.93-1.2-1.41-1.71c-0.83-0.88-1.93-1.07-3.01-0.6c-0.33,0.15-0.45,0.36-0.37,0.73
				c0.25,1.19,1.38,2.12,2.66,2.04C35.96,26.95,36.65,26.71,37.39,26.55z"/>
		</g>
	</g>
	<g>
		<g>
			<path class="st0" d="M167.68,39.19c-0.48-0.21-0.9-0.5-1.37-0.72c-0.44-0.21-0.86-0.47-1.25-0.77c-0.77-0.61-1.41-1.38-1.89-2.24
				c-0.93-1.69-1.23-3.76-0.58-5.6c-1.33,1.77-1.24,4.31-0.25,6.29c0.98,1.98,2.72,3.48,4.54,4.73c0.28,0.19,0.57,0.39,0.75,0.67
				c0.24,0.36,0.27,0.81,0.32,1.24c0.35,3.39,1.6,6.67,3.6,9.43c0.92-2.29,3.45-3.52,5.87-3.99c2.43-0.47,4.95-0.39,7.32-1.08
				c1.57-0.46,3.03-1.25,4.45-2.06c0.91-0.52,1.81-1.06,2.71-1.61c0.18-0.11,0.39-0.23,0.59-0.16c0.48,0.15,0.2,0.88-0.16,1.24
				c-2.25,2.27-4.58,4.59-7.52,5.85c-3.02,1.29-6.68,1.48-8.96,3.83c-0.5,0.52-0.92,1.3-0.56,1.92c0.13,0.21,0.33,0.37,0.53,0.51
				c1.97,1.41,4.17,2.49,6.5,3.17c-1.64,0.65-3.34,1.22-5.1,1.36s-3.61-0.18-5.06-1.19c1.11,1.59,3.25,2.08,5.19,2.12
				c1.86,0.04,3.73-0.21,5.51-0.75c0.84-0.25,1.67-0.57,2.54-0.7c1.08-0.16,2.18-0.04,3.27,0c7.2,0.26,14.4-3.58,18.2-9.7
				c0.39-0.63,0.76-1.33,0.69-2.07c-0.09-0.89-0.79-1.58-1.46-2.16c-4.5-3.9-10.05-6.82-15.99-7.25c-3.67-0.27-7.33,0.42-10.99,0.81
				c-2.62,0.28-5.3,0.41-7.91-0.06c-1.21-0.22-2.42-0.57-3.55-1.07"/>
		</g>
		<g>
			<path class="st0" d="M199.44,20.33c-2.76-1.51-5.79-2.37-9.06-2.57c0-0.02,0.01-0.03,0.01-0.03c3.61-0.78,7.59-1.33,11.28-1.39
				c0.18,0,0.37,0.01,0.55,0.03c0.18,0.02,0.36,0.04,0.53,0.08c0.17,0.04,0.34,0.08,0.51,0.13c0.17,0.05,0.33,0.11,0.49,0.18
				c0.16,0.07,0.31,0.14,0.47,0.23c0.15,0.08,0.3,0.17,0.44,0.27c0.14,0.1,0.28,0.2,0.41,0.31c0.06,0.05,0.12,0.1,0.17,0.15
				c0.03,0.03,0.06,0.05,0.08,0.08c0.02,0.02,0.05,0.04,0.09,0.04c0.07,0,0.12-0.05,0.12-0.12c0-0.03-0.02-0.06-0.03-0.08
				c-0.01-0.01-0.02-0.02-0.02-0.03c-0.03-0.03-0.06-0.07-0.1-0.11c-0.07-0.07-0.14-0.14-0.21-0.21c-0.52-0.49-1.13-0.87-1.79-1.13
				c-0.94-0.38-1.95-0.54-2.96-0.62c-0.53-0.04-1.06-0.07-1.6-0.09c-0.44-0.02-0.88-0.03-1.31-0.05c-0.93-0.03-1.89-0.09-2.82-0.04
				c-0.83,0.03-1.66,0.09-2.49,0.18c-0.28,0.03-0.57,0.06-0.85,0.1c-0.28,0.03-0.58,0.12-0.86,0.12c-0.18,0.02-0.36,0.03-0.54,0.05
				l0.01,0.03c-3.7,0.59-8.25,1.88-12.19,4.63c-0.21,0.15-0.4,0.29-0.58,0.42c-2.78,1.71-5.01,4.03-6.7,6.96
				c-0.85,1.48-1.5,3.08-1.97,4.78c-0.02,0.03-0.02,0.06,0,0.09c4.88,4.81,15.98,1.88,22.78,2.75c4.19,0.34,8.23,1.55,12.01,3.18
				c2.21,1.04,4.45,1.96,6.41,3.41c0,0.01,0,0.03-0.01,0.04c0-0.01,0-0.02,0.01-0.04c0.69,0.51,1.34,1.08,1.95,1.75
				c0.41,0.46,0.79,0.93,1.11,1.45c0.31,0.52,0.57,1.07,0.77,1.64c0.2,0.57,0.34,1.16,0.42,1.75c0.08,0.59,0.1,1.19,0.07,1.79
				c-0.04,0.59-0.13,1.18-0.28,1.75c-0.15,0.56-0.37,1.11-0.64,1.63c-0.02,0.04-0.07,0.1-0.06,0.15c0,0.07,0.05,0.12,0.12,0.12
				c0.12,0,0.22-0.23,0.28-0.31c0.08-0.12,0.16-0.24,0.23-0.36c0.15-0.24,0.28-0.49,0.4-0.74c0.23-0.5,0.42-1.02,0.55-1.55
				c0.13-0.53,0.21-1.07,0.23-1.61c0.03-0.55,0.01-1.09-0.06-1.64c-0.07-0.55-0.18-1.09-0.33-1.63c-0.15-0.54-0.35-1.07-0.58-1.58
				c-0.24-0.52-0.51-1.03-0.82-1.51c-0.31-0.49-0.65-0.96-1.03-1.4c-0.38-0.45-0.78-0.87-1.22-1.25c-0.19-0.17-0.38-0.33-0.58-0.49
				c-0.03-0.02-0.22-0.17-0.39-0.29c0-0.17,0.01-0.33,0.01-0.49c0-4.34-0.94-8.14-2.81-11.38l-1.19-1.82
				c-0.01,0.01-0.01,0.01-0.02,0.02c-1.76,1.66-3.94,2.36-6.12,3c-0.68,0.19-1.34,0.47-2.02,0.66l0,0.01
				c-0.07,0.02-0.14,0.03-0.21,0.04c-0.07,0.02-0.15,0.04-0.22,0.06l0-0.01c0,0,0,0,0,0c-0.3,0.07-0.61,0.13-0.92,0.17
				c-0.32,0.05-0.63,0.08-0.95,0.11c-0.31,0.02-0.53,0.12-0.74,0.36c-0.4,0.43-0.88,0.77-1.42,1.02c-0.54,0.25-1.1,0.33-1.69,0.23
				c-0.17-0.03-0.35-0.06-0.52-0.11c-0.23-0.06-0.43-0.1-0.65,0.06c-0.24,0.17-0.54,0.09-0.72-0.14c-0.12-0.16-0.26-0.21-0.45-0.22
				c-0.34-0.02-0.69-0.05-1.03-0.09c-0.58-0.07-1-0.37-1.23-0.92c-0.01-0.02-0.02-0.03-0.03-0.05c-0.01-0.01-0.01-0.01-0.04-0.03
				c-0.67,0.17-1.41,0.24-1.88,0.95c-0.02-0.31,0.14-0.49,0.25-0.72c-0.2-0.12-0.42-0.23-0.58-0.51c0.78,0.39,1.47,0.12,2.17-0.07
				c0.01-0.05,0.02-0.09,0.02-0.14c0.02-0.46,0.22-0.82,0.58-1.1c0.29-0.23,0.6-0.44,0.9-0.66c0.12-0.09,0.21-0.17,0.22-0.35
				c0.03-0.35,0.31-0.58,0.66-0.54c0.17,0.02,0.26-0.05,0.36-0.14c0.3-0.26,0.59-0.55,0.92-0.76c0.72-0.45,1.52-0.51,2.34-0.42
				c1.08,0.12,2.03,0.58,2.88,1.24c0.04,0.03,0.07,0.06,0.12,0.07c-0.17-0.36-0.51-0.56-0.83-0.85c0.16-0.02,0.27-0.04,0.39-0.05
				c0.26-0.03,0.53-0.07,0.79-0.11c0.04-0.01,0.08-0.01,0.11-0.02c0.27-0.05,0.55-0.1,0.81-0.18c0,0,0,0,0,0l0-0.01
				c0.19-0.06,0.34-0.12,0.5-0.18c0.05-0.02,0.11-0.04,0.17-0.07l0,0c0.17-0.07,0.33-0.14,0.5-0.23c0.27-0.14,0.53-0.29,0.79-0.43
				c0.59-0.32,1.19-0.65,1.75-1.03c0.27-0.18,0.66-0.39,0.9-0.6c0.19-0.16,0.37-0.33,0.54-0.51c0.06-0.07,0.11-0.14,0.11-0.23
				c0-0.05-0.01-0.1-0.03-0.15c-0.01-0.05-0.03-0.1-0.05-0.16L199.44,20.33z"/>
		</g>
	</g>
</g>
</svg>
